
<svg width="100%" height="100%" xmlns="http://www.w3.org/2000/svg">
  <filter id="glow" x="-50%" y="-50%" width="200%" height="200%">
    <feGaussianBlur stdDeviation="1.5" result="blur" />
    <feComposite in="SourceGraphic" in2="blur" operator="over" />
  </filter>
  
  <!-- Random stars -->
  <g filter="url(#glow)">
    <!-- Tiny stars -->
    <circle cx="10%" cy="20%" r="0.5" fill="white" opacity="0.6" />
    <circle cx="20%" cy="10%" r="0.5" fill="white" opacity="0.6" />
    <circle cx="30%" cy="30%" r="0.5" fill="white" opacity="0.6" />
    <circle cx="40%" cy="40%" r="0.5" fill="white" opacity="0.6" />
    <circle cx="50%" cy="25%" r="0.5" fill="white" opacity="0.6" />
    <circle cx="60%" cy="35%" r="0.5" fill="white" opacity="0.6" />
    <circle cx="70%" cy="15%" r="0.5" fill="white" opacity="0.6" />
    <circle cx="80%" cy="50%" r="0.5" fill="white" opacity="0.6" />
    <circle cx="90%" cy="30%" r="0.5" fill="white" opacity="0.6" />
    <circle cx="95%" cy="60%" r="0.5" fill="white" opacity="0.6" />
    <circle cx="15%" cy="70%" r="0.5" fill="white" opacity="0.6" />
    <circle cx="25%" cy="80%" r="0.5" fill="white" opacity="0.6" />
    <circle cx="35%" cy="65%" r="0.5" fill="white" opacity="0.6" />
    <circle cx="45%" cy="85%" r="0.5" fill="white" opacity="0.6" />
    <circle cx="55%" cy="75%" r="0.5" fill="white" opacity="0.6" />
    <circle cx="65%" cy="90%" r="0.5" fill="white" opacity="0.6" />
    <circle cx="75%" cy="95%" r="0.5" fill="white" opacity="0.6" />
    <circle cx="85%" cy="85%" r="0.5" fill="white" opacity="0.6" />
    <circle cx="38%" cy="23%" r="0.5" fill="white" opacity="0.6" />
    <circle cx="42%" cy="67%" r="0.5" fill="white" opacity="0.6" />

    <!-- Small stars -->
    <circle cx="15%" cy="15%" r="0.8" fill="white" opacity="0.8" />
    <circle cx="35%" cy="25%" r="0.8" fill="white" opacity="0.8" />
    <circle cx="55%" cy="45%" r="0.8" fill="white" opacity="0.8" />
    <circle cx="75%" cy="35%" r="0.8" fill="white" opacity="0.8" />
    <circle cx="88%" cy="12%" r="0.8" fill="white" opacity="0.8" />
    <circle cx="22%" cy="62%" r="0.8" fill="white" opacity="0.8" />
    <circle cx="42%" cy="78%" r="0.8" fill="white" opacity="0.8" />
    <circle cx="68%" cy="88%" r="0.8" fill="white" opacity="0.8" />
    <circle cx="82%" cy="62%" r="0.8" fill="white" opacity="0.8" />
    <circle cx="12%" cy="42%" r="0.8" fill="white" opacity="0.8" />

    <!-- Medium stars -->
    <circle cx="25%" cy="40%" r="1.2" fill="white" opacity="0.9" />
    <circle cx="45%" cy="15%" r="1.2" fill="white" opacity="0.9" />
    <circle cx="65%" cy="60%" r="1.2" fill="white" opacity="0.9" />
    <circle cx="85%" cy="25%" r="1.2" fill="white" opacity="0.9" />
    <circle cx="10%" cy="85%" r="1.2" fill="white" opacity="0.9" />
    <circle cx="32%" cy="92%" r="1.2" fill="white" opacity="0.9" />
    <circle cx="52%" cy="58%" r="1.2" fill="white" opacity="0.9" />
    <circle cx="72%" cy="72%" r="1.2" fill="white" opacity="0.9" />
    <circle cx="92%" cy="42%" r="1.2" fill="white" opacity="0.9" />
    <circle cx="28%" cy="28%" r="1.2" fill="white" opacity="0.9" />
  </g>
</svg>
